<svg width="302" height="31" viewBox="0 0 302 31" fill="none" xmlns="http://www.w3.org/2000/svg">
<path d="M28.7869 0.90909L23.9574 30H19.2699L8.85795 10.1847H8.63068L5.32102 30H0.0511364L4.88068 0.90909H9.59659L19.9943 20.7386H20.2642L23.5455 0.90909H28.7869ZM39.0746 30.4261C36.8871 30.4261 35.0784 29.9716 33.6484 29.0625C32.2185 28.1439 31.2147 26.8466 30.6371 25.1705C30.0689 23.4848 29.9742 21.5009 30.353 19.2188C30.7223 16.9744 31.4751 15.0047 32.6115 13.3097C33.7479 11.6051 35.1683 10.2794 36.8729 9.33239C38.5869 8.37595 40.4808 7.89773 42.5547 7.89773C43.8994 7.89773 45.1352 8.11553 46.2621 8.55114C47.389 8.97727 48.3407 9.64015 49.1172 10.5398C49.8937 11.4394 50.4287 12.5852 50.7223 13.9773C51.0159 15.3598 51.0017 17.0076 50.6797 18.9205L50.4382 20.4972H32.5405L33.0945 17.0312H46.049C46.2195 16.0464 46.1626 15.1705 45.8786 14.4034C45.5945 13.6269 45.121 13.0161 44.4581 12.571C43.7952 12.1259 42.9666 11.9034 41.9723 11.9034C40.959 11.9034 40.0121 12.1638 39.1314 12.6847C38.2602 13.196 37.5263 13.8589 36.9297 14.6733C36.3331 15.4877 35.9543 16.3447 35.7933 17.2443L35.2109 20.5682C35.0026 21.9318 35.05 23.0445 35.353 23.9062C35.656 24.768 36.1863 25.4025 36.9439 25.8097C37.7015 26.2169 38.6579 26.4205 39.8132 26.4205C40.5708 26.4205 41.2715 26.3163 41.9155 26.108C42.5594 25.8996 43.1323 25.5871 43.6342 25.1705C44.1456 24.7443 44.5717 24.2235 44.9126 23.608L49.6143 24.1477C49.0935 25.4167 48.3312 26.5246 47.3274 27.4716C46.3236 28.4091 45.121 29.1383 43.7195 29.6591C42.3274 30.1705 40.7791 30.4261 39.0746 30.4261ZM68.6484 20.8239L70.7649 8.18182H75.907L72.2706 30H67.2848L67.9382 26.1222H67.7109C67.0291 27.3437 66.0537 28.3428 64.7848 29.1193C63.5253 29.8958 62.0765 30.2841 60.4382 30.2841C59.0083 30.2841 57.8009 29.9669 56.8161 29.3324C55.8312 28.6884 55.1304 27.7557 54.7138 26.5341C54.3066 25.303 54.245 23.8163 54.5291 22.0739L56.8587 8.18182H62.0007L59.8132 21.2784C59.5954 22.661 59.7943 23.7595 60.4098 24.5739C61.0348 25.3883 61.9628 25.7955 63.1939 25.7955C63.9515 25.7955 64.7138 25.6108 65.4808 25.2415C66.2573 24.8722 66.9344 24.3229 67.5121 23.5938C68.0897 22.8551 68.4685 21.9318 68.6484 20.8239ZM77.5582 30L81.1946 8.18182H86.1804L85.5696 11.8182H85.7969C86.3935 10.5587 87.2363 9.58807 88.3253 8.90625C89.4238 8.21496 90.598 7.86932 91.848 7.86932C92.1416 7.86932 92.4588 7.88352 92.7997 7.91193C93.1406 7.93087 93.4342 7.96401 93.6804 8.01136L92.8849 12.7415C92.6671 12.6657 92.3262 12.5994 91.8622 12.5426C91.4077 12.4763 90.9579 12.4432 90.5128 12.4432C89.5753 12.4432 88.7041 12.6468 87.8991 13.054C87.1037 13.4517 86.4313 14.0057 85.8821 14.7159C85.3329 15.4261 84.9777 16.2453 84.8168 17.1733L82.7003 30H77.5582ZM99.2876 30.4403C97.9051 30.4403 96.7024 30.1941 95.6797 29.7017C94.657 29.1998 93.9041 28.4612 93.4212 27.4858C92.9477 26.5104 92.8293 25.3078 93.0661 23.8778C93.2744 22.6468 93.6721 21.6288 94.2592 20.8239C94.8558 20.0189 95.585 19.375 96.4467 18.892C97.3179 18.3996 98.2649 18.0303 99.2876 17.7841C100.32 17.5379 101.371 17.358 102.441 17.2443C103.748 17.1117 104.804 16.9886 105.609 16.875C106.423 16.7614 107.034 16.5909 107.441 16.3636C107.848 16.1269 108.094 15.767 108.18 15.2841V15.1989C108.35 14.1288 108.18 13.3002 107.668 12.7131C107.157 12.1259 106.305 11.8324 105.112 11.8324C103.862 11.8324 102.81 12.107 101.958 12.6562C101.106 13.2055 100.486 13.8542 100.097 14.6023L95.4382 13.9205C96.0253 12.5947 96.8303 11.4867 97.853 10.5966C98.8757 9.69697 100.055 9.02462 101.39 8.57955C102.735 8.125 104.169 7.89773 105.694 7.89773C106.736 7.89773 107.754 8.02083 108.748 8.26705C109.752 8.51326 110.637 8.92045 111.404 9.48864C112.181 10.0473 112.749 10.8097 113.109 11.7756C113.478 12.7415 113.54 13.9489 113.293 15.3977L110.864 30H105.921L106.433 27.0028H106.262C105.855 27.6089 105.325 28.1771 104.671 28.7074C104.018 29.2282 103.241 29.6496 102.342 29.9716C101.442 30.2841 100.424 30.4403 99.2876 30.4403ZM101.234 26.6619C102.266 26.6619 103.194 26.4583 104.018 26.0511C104.842 25.6345 105.519 25.0852 106.049 24.4034C106.579 23.7216 106.911 22.9782 107.043 22.1733L107.469 19.6023C107.28 19.7348 106.987 19.858 106.589 19.9716C106.191 20.0852 105.746 20.1847 105.254 20.2699C104.771 20.3551 104.292 20.4309 103.819 20.4972C103.345 20.5634 102.938 20.6203 102.597 20.6676C101.811 20.7718 101.092 20.9422 100.438 21.179C99.7943 21.4157 99.2592 21.7472 98.8331 22.1733C98.4164 22.59 98.156 23.1297 98.0518 23.7926C97.9003 24.7301 98.1229 25.4451 98.7195 25.9375C99.3161 26.4205 100.154 26.6619 101.234 26.6619ZM126.006 0.90909L121.177 30H116.035L120.864 0.90909H126.006ZM165.349 0.90909L160.52 30H155.832L145.42 10.1847H145.193L141.884 30H136.614L141.443 0.90909H146.159L156.557 20.7386H156.827L160.108 0.90909H165.349ZM175.637 30.4261C173.45 30.4261 171.641 29.9716 170.211 29.0625C168.781 28.1439 167.777 26.8466 167.2 25.1705C166.631 23.4848 166.537 21.5009 166.915 19.2188C167.285 16.9744 168.038 15.0047 169.174 13.3097C170.31 11.6051 171.731 10.2794 173.435 9.33239C175.149 8.37595 177.043 7.89773 179.117 7.89773C180.462 7.89773 181.698 8.11553 182.825 8.55114C183.951 8.97727 184.903 9.64015 185.68 10.5398C186.456 11.4394 186.991 12.5852 187.285 13.9773C187.578 15.3598 187.564 17.0076 187.242 18.9205L187.001 20.4972H169.103L169.657 17.0312H182.612C182.782 16.0464 182.725 15.1705 182.441 14.4034C182.157 13.6269 181.683 13.0161 181.021 12.571C180.358 12.1259 179.529 11.9034 178.535 11.9034C177.522 11.9034 176.575 12.1638 175.694 12.6847C174.823 13.196 174.089 13.8589 173.492 14.6733C172.896 15.4877 172.517 16.3447 172.356 17.2443L171.773 20.5682C171.565 21.9318 171.612 23.0445 171.915 23.9062C172.219 24.768 172.749 25.4025 173.506 25.8097C174.264 26.2169 175.22 26.4205 176.376 26.4205C177.133 26.4205 177.834 26.3163 178.478 26.108C179.122 25.8996 179.695 25.5871 180.197 25.1705C180.708 24.7443 181.134 24.2235 181.475 23.608L186.177 24.1477C185.656 25.4167 184.894 26.5246 183.89 27.4716C182.886 28.4091 181.683 29.1383 180.282 29.6591C178.89 30.1705 177.342 30.4261 175.637 30.4261ZM204.316 8.18182L203.648 12.1591H191.12L191.773 8.18182H204.316ZM195.722 2.95455H200.864L197.455 23.4375C197.351 24.1288 197.37 24.6591 197.512 25.0284C197.664 25.3883 197.905 25.6345 198.237 25.767C198.577 25.8996 198.961 25.9659 199.387 25.9659C199.7 25.9659 199.993 25.9422 200.268 25.8949C200.542 25.8381 200.76 25.7955 200.921 25.767L201.148 29.7869C200.836 29.8816 200.415 29.9858 199.884 30.0994C199.363 30.2131 198.738 30.2794 198.009 30.2983C196.702 30.3267 195.566 30.1278 194.6 29.7017C193.644 29.2661 192.943 28.5985 192.498 27.6989C192.062 26.7898 191.963 25.6534 192.2 24.2898L195.722 2.95455ZM209.483 30L206.955 8.18182H212.196L213.474 23.5227H213.673L220.151 8.18182H225.335L226.699 23.4375H226.912L233.247 8.18182H238.503L228.688 30H223.332L221.685 15.2557H221.386L214.852 30H209.483ZM247.406 30.4261C245.256 30.4261 243.466 29.9527 242.036 29.0057C240.616 28.0587 239.617 26.7282 239.039 25.0142C238.461 23.3002 238.357 21.3116 238.727 19.0483C239.096 16.8134 239.835 14.858 240.942 13.1818C242.06 11.5057 243.466 10.2083 245.161 9.28977C246.866 8.36174 248.774 7.89773 250.886 7.89773C253.035 7.89773 254.82 8.37595 256.241 9.33239C257.661 10.2794 258.66 11.6098 259.238 13.3239C259.825 15.0379 259.934 17.036 259.565 19.3182C259.205 21.5436 258.461 23.4896 257.335 25.1562C256.217 26.8229 254.811 28.1203 253.116 29.0483C251.421 29.9669 249.517 30.4261 247.406 30.4261ZM247.832 26.3068C249.025 26.3068 250.071 25.9848 250.971 25.3409C251.88 24.6875 252.623 23.8116 253.201 22.7131C253.788 21.6051 254.195 20.3741 254.423 19.0199C254.631 17.7131 254.636 16.5294 254.437 15.4688C254.238 14.3987 253.812 13.5511 253.158 12.9261C252.514 12.2917 251.62 11.9744 250.474 11.9744C249.281 11.9744 248.225 12.3059 247.306 12.9688C246.397 13.6222 245.654 14.5028 245.076 15.6108C244.498 16.7093 244.101 17.9356 243.883 19.2898C243.665 20.5966 243.656 21.7803 243.854 22.8409C244.053 23.9015 244.479 24.7443 245.133 25.3693C245.786 25.9943 246.686 26.3068 247.832 26.3068ZM262.168 30L265.804 8.18182H270.79L270.179 11.8182H270.406C271.003 10.5587 271.846 9.58807 272.935 8.90625C274.033 8.21496 275.207 7.86932 276.457 7.86932C276.751 7.86932 277.068 7.88352 277.409 7.91193C277.75 7.93087 278.044 7.96401 278.29 8.01136L277.494 12.7415C277.277 12.6657 276.936 12.5994 276.472 12.5426C276.017 12.4763 275.567 12.4432 275.122 12.4432C274.185 12.4432 273.313 12.6468 272.509 13.054C271.713 13.4517 271.041 14.0057 270.491 14.7159C269.942 15.4261 269.587 16.2453 269.426 17.1733L267.31 30H262.168ZM283.876 23.1534L284.884 16.946H285.708L295.04 8.18182H301.049L289.629 18.9205H288.577L283.876 23.1534ZM278.066 30L282.896 0.90909H288.038L283.208 30H278.066ZM291.759 30L286.305 20.071L290.381 16.4489L297.91 30H291.759Z" fill="url(#paint0_linear_1_28)"/>
<defs>
<linearGradient id="paint0_linear_1_28" x1="150" y1="-9" x2="150" y2="39" gradientUnits="userSpaceOnUse">
<stop stop-color="white"/>
<stop offset="1" stop-color="#D22525"/>
</linearGradient>
</defs>
</svg>
