<svg width="40" height="40" viewBox="0 0 40 40" fill="none" xmlns="http://www.w3.org/2000/svg">
<rect width="40" height="40" rx="20" fill="white"/>
<path d="M20 10C18.6868 10 17.3864 10.2587 16.1732 10.7612C14.9599 11.2638 13.8575 12.0003 12.9289 12.9289C11.0536 14.8043 10 17.3478 10 20C10 24.42 12.87 28.17 16.84 29.5C17.34 29.58 17.5 29.27 17.5 29V27.31C14.73 27.91 14.14 25.97 14.14 25.97C13.68 24.81 13.03 24.5 13.03 24.5C12.12 23.88 13.1 23.9 13.1 23.9C14.1 23.97 14.63 24.93 14.63 24.93C15.5 26.45 16.97 26 17.54 25.76C17.63 25.11 17.89 24.67 18.17 24.42C15.95 24.17 13.62 23.31 13.62 19.5C13.62 18.39 14 17.5 14.65 16.79C14.55 16.54 14.2 15.5 14.75 14.15C14.75 14.15 15.59 13.88 17.5 15.17C18.29 14.95 19.15 14.84 20 14.84C20.85 14.84 21.71 14.95 22.5 15.17C24.41 13.88 25.25 14.15 25.25 14.15C25.8 15.5 25.45 16.54 25.35 16.79C26 17.5 26.38 18.39 26.38 19.5C26.38 23.32 24.04 24.16 21.81 24.41C22.17 24.72 22.5 25.33 22.5 26.26V29C22.5 29.27 22.66 29.59 23.17 29.5C27.14 28.16 30 24.42 30 20C30 18.6868 29.7413 17.3864 29.2388 16.1732C28.7362 14.9599 27.9997 13.8575 27.0711 12.9289C26.1425 12.0003 25.0401 11.2638 23.8268 10.7612C22.6136 10.2587 21.3132 10 20 10Z" fill="black"/>
</svg>
